<?xml version="1.0" encoding="utf-8"?>
<!-- Generator: Adobe Illustrator 17.1.0, SVG Export Plug-In . SVG Version: 6.00 Build 0)  -->
<!DOCTYPE svg PUBLIC "-//W3C//DTD SVG 1.1//EN" "http://www.w3.org/Graphics/SVG/1.1/DTD/svg11.dtd">
<svg version="1.1" id="Layer_1" xmlns="http://www.w3.org/2000/svg" xmlns:xlink="http://www.w3.org/1999/xlink" x="0px" y="0px"
	 viewBox="0 0 100 100" enable-background="new 0 0 100 100" xml:space="preserve">
<g>
	<g>
		<g>
			<path fill="#E7E7E7" d="M37.9,65.4c-8.3,0-9.8-5.3-10.2-7.5c-0.6-4.2,0.5-6.3,3.3-7.1c0.8-0.2,3.4-0.6,6.3-0.6
				c6.3,0,9.8,1.6,10.2,4.6c0.3,2.8-0.6,5.5-2.3,7.5C43.5,64.2,40.9,65.4,37.9,65.4z M37.4,51.8c-2.9,0-5.3,0.3-5.9,0.6
				c-1.4,0.4-2.7,1.1-2.2,5.4c0.5,3.9,3.5,6.1,8.6,6.1c2.5,0,4.7-0.9,6.2-2.6c1.4-1.7,2.2-3.9,1.9-6.2
				C45.7,52.1,39.9,51.8,37.4,51.8z"/>
		</g>
		<g>
			<path fill="#E7E7E7" d="M62.2,65.4c-3,0-5.6-1.1-7.4-3.1c-1.8-2-2.6-4.7-2.3-7.5c0.3-3,3.8-4.6,10.3-4.6c3,0,5.5,0.3,6.3,0.6
				c2.9,0.8,3.8,3,3.3,7.1C72.1,60.1,70.5,65.4,62.2,65.4z M62.7,51.8c-2.5,0-8.3,0.3-8.6,3.1c-0.2,2.3,0.5,4.6,1.9,6.2
				c1.5,1.7,3.7,2.6,6.2,2.6c5,0,8-2.2,8.6-6.1c0.6-4.2-0.8-5-2.2-5.4C68,52.2,65.5,51.8,62.7,51.8z"/>
		</g>
		<g>
			<path fill="#E7E7E7" d="M53.5,54.6c-0.2,0-0.2,0-0.4-0.1c-3-1.6-6.2,0-6.2,0c-0.4,0.2-0.9,0-1.1-0.4c-0.2-0.4,0-0.9,0.4-1.1
				c0.2-0.1,4.1-2,7.8,0c0.4,0.2,0.6,0.7,0.3,1.1C54.1,54.5,53.8,54.6,53.5,54.6z"/>
		</g>
	</g>
	<g>
		<path fill="#E7E7E7" d="M50,69.9c-3.8,0-4.9-2.3-4.9-3.5c0-0.5,0.4-0.8,0.8-0.8c0.5,0,0.8,0.3,0.8,0.8c0,0.2,0.2,1.9,3.3,1.9
			c3.1,0,3.3-1.7,3.3-1.9c0-0.5,0.4-0.8,0.8-0.8c0.5,0,0.8,0.4,0.8,0.8C54.9,67.6,53.8,69.9,50,69.9z"/>
	</g>
	<g>
		<path fill="#E7E7E7" d="M54.9,76.7h-9.8c-0.5,0-0.8-0.4-0.8-0.8c0-0.5,0.4-0.8,0.8-0.8h9.8c0.5,0,0.8,0.4,0.8,0.8
			C55.7,76.3,55.4,76.7,54.9,76.7z"/>
	</g>
	<g>
		<path fill="#E7E7E7" d="M51.6,80h-3.2c-0.5,0-0.8-0.4-0.8-0.8c0-0.5,0.4-0.8,0.8-0.8h3.2c0.5,0,0.8,0.4,0.8,0.8
			C52.5,79.6,52.1,80,51.6,80z"/>
	</g>
	<g>
		<path fill="#E7E7E7" d="M72.8,40.9c-0.2,0-0.4-0.1-0.6-0.2c-0.1-0.1-6.6-6.2-22.2-6.2s-22.2,6.2-22.3,6.2
			c-0.2,0.2-0.6,0.3-0.9,0.2c-0.3-0.2-0.5-0.4-0.5-0.7v-9.8c0-0.2,0-5.1,3-10.2C34.2,11.8,43.3,10,50,10s15.8,1.8,20.6,10.2
			c3,5,3,10,3,10.2v9.8c0,0.3-0.2,0.6-0.5,0.7C73,40.9,72.9,40.9,72.8,40.9z M50,11.6c-9.1,0-15.6,3.1-19.2,9.4
			c-2.7,4.6-2.8,9.4-2.8,9.4v8.1c2.7-1.9,9.5-5.6,22-5.6c12.4,0,19.3,3.7,22,5.6v-8.2c0-0.1-0.1-4.8-2.8-9.4
			C65.6,14.7,59.1,11.6,50,11.6z"/>
	</g>
	<g>
		<path fill="#E7E7E7" d="M74.6,44.4c-0.1,0-0.2,0-0.2-0.1c-0.1,0-10.6-3.5-24.4-3.5s-24.3,3.4-24.4,3.5c-0.3,0.1-0.7,0-1-0.3
			c-0.2-0.3-0.2-0.7-0.1-1l2-3.5l1.5,0.9l-1,1.6c3.8-1,12.4-3,22.8-3s19,1.9,22.8,3l-1-1.6l1.5-0.9l2,3.5c0.2,0.3,0.2,0.7-0.1,1
			C75.2,44.2,75,44.4,74.6,44.4z"/>
	</g>
	<g>
		<circle fill="#E7E7E7" cx="37.8" cy="55.5" r="2.5"/>
	</g>
	<g>
		<circle fill="#E7E7E7" cx="62.2" cy="55.5" r="2.5"/>
	</g>
	<g>
		<path fill="#E7E7E7" d="M43.5,40.1L61.4,47l-1.6-3.3h3.3l-1.6-3.3C61.4,40.5,53.3,40.1,43.5,40.1z"/>
	</g>
	<g>
		<path fill="#E7E7E7" d="M45.1,48.2c0,0.9-0.7,1.6-1.6,1.6h-9.7c-0.9,0-1.6-0.7-1.6-1.6l0,0c0-0.9,0.7-1.6,1.6-1.6h9.7
			C44.4,46.6,45.1,47.4,45.1,48.2L45.1,48.2z"/>
	</g>
	<g>
		<path fill="#E7E7E7" d="M67.9,48.2c0,0.9-0.7,1.6-1.6,1.6h-9.8c-0.9,0-1.6-0.7-1.6-1.6l0,0c0-0.9,0.7-1.6,1.6-1.6h9.8
			C67.2,46.6,67.9,47.4,67.9,48.2L67.9,48.2z"/>
	</g>
	<g>
		<path fill="#E7E7E7" d="M50,90c-9.8,0-14.5-6.5-18.6-12.2c-0.4-0.6-0.9-1.2-1.3-1.8c-3.7-5-3.8-15.9-3.8-16.4V43.4
			c0-0.5,0.4-0.8,0.8-0.8c0.5,0,0.8,0.4,0.8,0.8v16.2c0,0.1,0.1,10.8,3.4,15.4c0.5,0.6,0.9,1.2,1.4,1.8c4,5.7,8.2,11.5,17.2,11.5
			c0.5,0,0.8,0.4,0.8,0.8C50.8,89.6,50.5,90,50,90z"/>
	</g>
	<g>
		<path fill="#E7E7E7" d="M50,90c-0.5,0-0.8-0.4-0.8-0.8c0-0.5,0.4-0.8,0.8-0.8c9,0,13.2-5.8,17.2-11.4c0.5-0.6,0.9-1.3,1.4-1.8
			c3.4-4.6,3.4-15.3,3.4-15.4V43.3c0-0.5,0.4-0.8,0.8-0.8c0.5,0,0.8,0.4,0.8,0.8v16.2c0,0.5-0.1,11.3-3.8,16.4
			c-0.5,0.6-0.9,1.2-1.3,1.8C64.5,83.5,59.8,90,50,90z"/>
	</g>
	<g>
		<path fill="#E7E7E7" stroke="#231F20" stroke-width="1.6271" stroke-linecap="round" stroke-miterlimit="10" d="M50,89.2"/>
	</g>
	<g>
		<path fill="#E7E7E7" d="M72.8,60.5c-0.5,0-0.8-0.4-0.8-0.8V43.3c0-0.5,0.4-0.8,0.8-0.8c0.5,0,0.8,0.4,0.8,0.8v16.2
			C73.6,60.1,73.2,60.5,72.8,60.5z"/>
	</g>
	<g>
		<polygon fill="#E7E7E7" points="26.3,43.2 22.1,49 25.4,49 24.2,52.3 27.2,51.5 		"/>
	</g>
	<g>
		<polygon fill="#E7E7E7" points="73.7,43.2 77.9,49 74.6,49 75.8,52.3 72.8,51.5 		"/>
	</g>
	<g>
		<g>
			<path fill="#E7E7E7" d="M33,79.4c-0.3,0-0.6-0.3-0.6-0.6v-4.1c0-0.3,0.3-0.6,0.6-0.6s0.6,0.3,0.6,0.6v4.1
				C33.7,79.1,33.4,79.4,33,79.4z"/>
		</g>
		<g>
			<path fill="#E7E7E7" d="M35.6,82.6c-0.3,0-0.6-0.3-0.6-0.6v-4.1c0-0.3,0.3-0.6,0.6-0.6c0.3,0,0.6,0.3,0.6,0.6V82
				C36.2,82.3,36,82.6,35.6,82.6z"/>
		</g>
		<g>
			<path fill="#E7E7E7" d="M38.2,85.5c-0.3,0-0.6-0.3-0.6-0.6v-4.1c0-0.3,0.3-0.6,0.6-0.6c0.3,0,0.6,0.3,0.6,0.6v4.1
				C38.8,85.2,38.5,85.5,38.2,85.5z"/>
		</g>
		<g>
			<path fill="#E7E7E7" d="M40.7,87.5c-0.3,0-0.6-0.3-0.6-0.6v-4.1c0-0.3,0.3-0.6,0.6-0.6c0.3,0,0.6,0.3,0.6,0.6v4.1
				C41.4,87.2,41,87.5,40.7,87.5z"/>
		</g>
		<g>
			<path fill="#E7E7E7" d="M43.3,88.7c-0.3,0-0.6-0.3-0.6-0.6V84c0-0.3,0.3-0.6,0.6-0.6c0.3,0,0.6,0.3,0.6,0.6v4.1
				C43.9,88.5,43.6,88.7,43.3,88.7z"/>
		</g>
		<g>
			<path fill="#E7E7E7" d="M45.8,89.5c-0.3,0-0.6-0.3-0.6-0.6v-4.1c0-0.3,0.3-0.6,0.6-0.6c0.3,0,0.6,0.3,0.6,0.6v4.1
				C46.5,89.3,46.2,89.5,45.8,89.5z"/>
		</g>
		<g>
			<path fill="#E7E7E7" d="M48.4,89.5c-0.3,0-0.6-0.3-0.6-0.6v-4.1c0-0.3,0.3-0.6,0.6-0.6c0.3,0,0.6,0.3,0.6,0.6v4.1
				C49,89.3,48.7,89.5,48.4,89.5z"/>
		</g>
	</g>
	<g>
		<g>
			<path fill="#E7E7E7" d="M67,79.4c-0.3,0-0.6-0.3-0.6-0.6v-4.1c0-0.3,0.3-0.6,0.6-0.6s0.6,0.3,0.6,0.6v4.1
				C67.6,79,67.3,79.4,67,79.4z"/>
		</g>
		<g>
			<path fill="#E7E7E7" d="M64.4,82.6c-0.3,0-0.6-0.3-0.6-0.6v-4.1c0-0.3,0.3-0.6,0.6-0.6s0.6,0.3,0.6,0.6v4.1
				C65,82.3,64.7,82.6,64.4,82.6z"/>
		</g>
		<g>
			<path fill="#E7E7E7" d="M61.8,85.4c-0.3,0-0.6-0.3-0.6-0.6v-4.1c0-0.3,0.3-0.6,0.6-0.6c0.3,0,0.6,0.3,0.6,0.6v4.1
				C62.5,85.1,62.2,85.4,61.8,85.4z"/>
		</g>
		<g>
			<path fill="#E7E7E7" d="M59.3,87.4c-0.3,0-0.6-0.3-0.6-0.6v-4.1c0-0.3,0.3-0.6,0.6-0.6c0.3,0,0.6,0.3,0.6,0.6v4.1
				C59.9,87.2,59.7,87.4,59.3,87.4z"/>
		</g>
		<g>
			<path fill="#E7E7E7" d="M56.7,88.6c-0.3,0-0.6-0.3-0.6-0.6v-4.1c0-0.3,0.3-0.6,0.6-0.6s0.6,0.3,0.6,0.6V88
				C57.4,88.4,57.1,88.6,56.7,88.6z"/>
		</g>
		<g>
			<path fill="#E7E7E7" d="M54.2,89.5c-0.3,0-0.6-0.3-0.6-0.6v-4.1c0-0.3,0.3-0.6,0.6-0.6s0.6,0.2,0.6,0.6v4.1
				C54.8,89.2,54.6,89.5,54.2,89.5z"/>
		</g>
		<g>
			<path fill="#E7E7E7" d="M51.6,89.5c-0.3,0-0.6-0.3-0.6-0.6v-4.1c0-0.3,0.3-0.6,0.6-0.6c0.3,0,0.6,0.3,0.6,0.6v4.1
				C52.2,89.2,52,89.5,51.6,89.5z"/>
		</g>
	</g>
	<g>
		<path fill="#E7E7E7" d="M52.6,29h-5.8c-0.3,0-0.6-0.3-0.6-0.6c0-0.3,0.2-0.6,0.6-0.6h5.8c1.7,0,1.8-1.6,1.8-1.8v-4.6
			c0-1.6-1.4-1.8-1.8-1.8h-5.8c-0.3,0-0.6-0.3-0.6-0.6c0-0.3,0.2-0.6,0.6-0.6h5.8c0.1,0,0.7,0,1.4,0.3c1,0.5,1.5,1.4,1.5,2.6v4.6
			c0,0.1,0,0.7-0.3,1.4C54.6,28.6,53.8,29,52.6,29z"/>
	</g>
	<g>
		<path fill="#E7E7E7" d="M47.9,29c-0.3,0-0.6-0.3-0.6-0.6v-9.3c0-0.3,0.2-0.6,0.6-0.6s0.6,0.2,0.6,0.6v9.3
			C48.5,28.8,48.2,29,47.9,29z"/>
	</g>
	<g>
		<path fill="#E7E7E7" d="M50.2,29c-0.3,0-0.6-0.3-0.6-0.6v-9.3c0-0.3,0.2-0.6,0.6-0.6c0.3,0,0.6,0.2,0.6,0.6v9.3
			C50.8,28.8,50.6,29,50.2,29z"/>
	</g>
	<g>
		<path fill="#E7E7E7" d="M47.9,23.3h-1.2c-0.3,0-0.6-0.2-0.6-0.6s0.2-0.6,0.6-0.6h1.2c0.3,0,0.6,0.2,0.6,0.6
			C48.5,23,48.2,23.3,47.9,23.3z"/>
	</g>
	<g>
		<path fill="#E7E7E7" d="M50.2,22.1h-2.3c-0.3,0-0.6-0.3-0.6-0.6c0-0.3,0.2-0.6,0.6-0.6h2.3c0.3,0,0.6,0.3,0.6,0.6
			C50.8,21.8,50.6,22.1,50.2,22.1z"/>
	</g>
	<g>
		<path fill="#E7E7E7" d="M50.2,26.7h-2.3c-0.3,0-0.6-0.3-0.6-0.6c0-0.3,0.2-0.6,0.6-0.6h2.3c0.3,0,0.6,0.3,0.6,0.6
			C50.8,26.5,50.6,26.7,50.2,26.7z"/>
	</g>
	<g>
		<path fill="#E7E7E7" d="M47.9,25.6h-1.2c-0.3,0-0.6-0.2-0.6-0.6c0-0.3,0.2-0.6,0.6-0.6h1.2c0.3,0,0.6,0.2,0.6,0.6
			C48.5,25.3,48.2,25.6,47.9,25.6z"/>
	</g>
	<g>
		<path fill="#E7E7E7" d="M50.2,23.3c-0.3,0-0.6-0.2-0.6-0.6s0.2-0.6,0.6-0.6c1.8,0,3.8-0.3,4.1-0.6c0-0.3,0.2-0.6,0.6-0.6
			c0.3,0,0.6,0.3,0.6,0.6C55.4,22.3,54.6,23.3,50.2,23.3z"/>
	</g>
	<g>
		<path fill="#E7E7E7" d="M54.9,26.7c-0.3,0-0.6-0.3-0.6-0.6c-0.3-0.3-2.2-0.6-4.1-0.6c-0.3,0-0.6-0.2-0.6-0.6
			c0-0.3,0.2-0.6,0.6-0.6c4.3,0,5.2,1,5.2,1.7C55.4,26.5,55.2,26.7,54.9,26.7z"/>
	</g>
	<g>
		<path fill="#E7E7E7" d="M47.4,73.5c-0.3,0-0.6-0.3-0.6-0.6v-1.5c0-0.3,0.3-0.6,0.6-0.6c0.3,0,0.6,0.3,0.6,0.6v1.5
			C48,73.3,47.7,73.5,47.4,73.5z"/>
	</g>
	<g>
		<path fill="#E7E7E7" d="M44.9,73.9c-0.3,0-0.6-0.3-0.6-0.6v-1.5c0-0.3,0.3-0.6,0.6-0.6s0.6,0.3,0.6,0.6v1.5
			C45.5,73.7,45.3,73.9,44.9,73.9z"/>
	</g>
	<g>
		<path fill="#E7E7E7" d="M42.5,74.4c-0.3,0-0.6-0.3-0.6-0.6v-1.5c0-0.3,0.3-0.6,0.6-0.6c0.3,0,0.6,0.3,0.6,0.6v1.5
			C43.1,74.1,42.8,74.4,42.5,74.4z"/>
	</g>
	<g>
		<path fill="#E7E7E7" d="M40,75.2c-0.3,0-0.6-0.3-0.6-0.6V73c0-0.3,0.3-0.6,0.6-0.6s0.6,0.3,0.6,0.6v1.5
			C40.6,74.9,40.4,75.2,40,75.2z"/>
	</g>
	<g>
		<path fill="#E7E7E7" d="M52.6,73.5c-0.3,0-0.6-0.3-0.6-0.6v-1.5c0-0.3,0.3-0.6,0.6-0.6c0.3,0,0.6,0.3,0.6,0.6v1.5
			C53.2,73.3,52.9,73.5,52.6,73.5z"/>
	</g>
	<g>
		<path fill="#E7E7E7" d="M55,73.9c-0.3,0-0.6-0.3-0.6-0.6v-1.5c0-0.3,0.3-0.6,0.6-0.6c0.3,0,0.6,0.3,0.6,0.6v1.5
			C55.6,73.7,55.4,73.9,55,73.9z"/>
	</g>
	<g>
		<path fill="#E7E7E7" d="M57.4,74.4c-0.3,0-0.6-0.3-0.6-0.6v-1.5c0-0.3,0.3-0.6,0.6-0.6c0.3,0,0.6,0.3,0.6,0.6v1.5
			C58.1,74.1,57.7,74.4,57.4,74.4z"/>
	</g>
	<g>
		<path fill="#E7E7E7" d="M59.8,75.2c-0.3,0-0.6-0.3-0.6-0.6V73c0-0.3,0.3-0.6,0.6-0.6s0.6,0.3,0.6,0.6v1.5
			C60.5,74.9,60.2,75.2,59.8,75.2z"/>
	</g>
</g>
</svg>
